<?xml version="1.0" encoding="iso-8859-1"?><!-- Generator: Adobe Illustrator 19.2.1, SVG Export Plug-In . SVG Version: 6.00 Build 0)  --><svg xmlns="http://www.w3.org/2000/svg" xmlns:xlink="http://www.w3.org/1999/xlink" viewBox="0 0 50 50" width="50px" height="50px"><path style="fill:none;stroke:#000000;stroke-width:2;stroke-linecap:round;stroke-linejoin:round;stroke-miterlimit:10;" d="M32.363,36.118L35.188,40c1.938-0.062,9.25-1.5,11.812-6c0-9.59-4.167-20.76-6-22.453C37.211,8.502,31,8,31,8s-0.495,1.103-0.626,2.476"/><ellipse style="fill:none;stroke:#000000;stroke-width:2;stroke-linecap:round;stroke-linejoin:round;stroke-miterlimit:10;" cx="31.5" cy="26" rx="3.5" ry="4"/><path style="fill:none;stroke:#000000;stroke-width:2;stroke-linecap:round;stroke-linejoin:round;stroke-miterlimit:10;" d="M19.626,10.476C19.495,9.103,19,8,19,8s-6.211,0.502-10,3.547C7.167,13.24,3,24.41,3,34c2.562,4.5,9.875,5.938,11.812,6l2.825-3.882"/><path style="fill:none;stroke:#000000;stroke-width:2;stroke-linecap:round;stroke-linejoin:round;stroke-miterlimit:10;" d="M10.513,32.759c0,0,4.8,4.241,14.487,4.241s14.487-4.241,14.487-4.241"/><path style="fill:none;stroke:#000000;stroke-width:2;stroke-linecap:round;stroke-linejoin:round;stroke-miterlimit:10;" d="M38.051,13.428C33.14,10.382,27.122,10,25,10s-8.14,0.382-13.051,3.428"/><ellipse style="fill:none;stroke:#000000;stroke-width:2;stroke-linecap:round;stroke-linejoin:round;stroke-miterlimit:10;" cx="18.5" cy="26" rx="3.5" ry="4"/></svg>